<svg width="25" height="25" viewBox="0 0 25 25" fill="none" xmlns="http://www.w3.org/2000/svg">
<g id="Facebook - Original" clip-path="url(#clip0_9500_2013)">
<path id="Vector" d="M24.0755 12.0375C24.0755 5.38923 18.686 -0.000244141 12.0377 -0.000244141C5.38947 -0.000244141 0 5.38923 0 12.0375C0 18.0458 4.402 23.0259 10.1568 23.929V15.5172H7.10038V12.0375H10.1568V9.38543C10.1568 6.36847 11.954 4.702 14.7037 4.702C16.0203 4.702 17.3983 4.93711 17.3983 4.93711V7.89952H15.8804C14.3851 7.89952 13.9186 8.82751 13.9186 9.78042V12.0375H17.2572L16.7235 15.5172H13.9186V23.929C19.6735 23.0259 24.0755 18.0458 24.0755 12.0375Z" fill="#1877F2"/>
<path id="Vector_2" d="M16.7227 15.5171L17.2564 12.0375H13.9179V9.78042C13.9179 8.82845 14.3843 7.89952 15.8796 7.89952H17.3975V4.93711C17.3975 4.93711 16.02 4.702 14.7029 4.702C11.9533 4.702 10.1561 6.36847 10.1561 9.38543V12.0375H7.09961V15.5171H10.1561V23.929C11.4024 24.124 12.6715 24.124 13.9179 23.929V15.5171H16.7227Z" fill="white"/>
</g>
<defs>
<clipPath id="clip0_9500_2013">
<rect width="24.0755" height="24.0755" fill="white" transform="translate(0 -0.000244141)"/>
</clipPath>
</defs>
</svg>
