<svg width="25" height="25" viewBox="0 0 25 25" fill="none" xmlns="http://www.w3.org/2000/svg">
<g id="LinkedIn - Original" clip-path="url(#clip0_9500_2021)">
<path id="Vector" d="M23.2221 -0.000244141H2.70107C2.22971 -0.000244141 1.77767 0.187 1.44437 0.520297C1.11107 0.853594 0.923828 1.30564 0.923828 1.77699V22.298C0.923828 22.7693 1.11107 23.2214 1.44437 23.5547C1.77767 23.888 2.22971 24.0752 2.70107 24.0752H23.2221C23.6934 24.0752 24.1455 23.888 24.4788 23.5547C24.8121 23.2214 24.9993 22.7693 24.9993 22.298V1.77699C24.9993 1.30564 24.8121 0.853594 24.4788 0.520297C24.1455 0.187 23.6934 -0.000244141 23.2221 -0.000244141ZM8.09966 20.509H4.47998V9.01134H8.09966V20.509ZM6.28731 7.41801C5.87672 7.4157 5.47601 7.29181 5.13577 7.06198C4.79552 6.83215 4.53098 6.50668 4.37553 6.12665C4.22008 5.74662 4.18069 5.32905 4.26232 4.92666C4.34396 4.52426 4.54298 4.15506 4.83424 3.86566C5.12551 3.57625 5.49598 3.37962 5.89889 3.30056C6.30181 3.22151 6.71911 3.26358 7.09813 3.42147C7.47716 3.57935 7.80093 3.84598 8.02856 4.1877C8.2562 4.52941 8.37752 4.9309 8.37719 5.3415C8.38107 5.6164 8.32956 5.88926 8.22573 6.14382C8.1219 6.39838 7.96789 6.62944 7.77287 6.82321C7.57785 7.01699 7.34581 7.16951 7.09058 7.2717C6.83536 7.37389 6.56217 7.42365 6.28731 7.41801ZM21.4415 20.5191H17.8235V14.2377C17.8235 12.3852 17.036 11.8135 16.0195 11.8135C14.9461 11.8135 13.8928 12.6227 13.8928 14.2845V20.5191H10.2731V9.0197H13.754V10.613H13.8009C14.1503 9.90581 15.3741 8.69702 17.2416 8.69702C19.2613 8.69702 21.4432 9.89578 21.4432 13.4068L21.4415 20.5191Z" fill="#0A66C2"/>
</g>
<defs>
<clipPath id="clip0_9500_2021">
<rect width="24.0755" height="24.0755" fill="white" transform="translate(0.923828 -0.000244141)"/>
</clipPath>
</defs>
</svg>
